HIERARCHY
ROOT root
{
	OFFSET 0.000000 0.000000 0.000000
	CHANNELS 6 Xposition Yposition Zposition Zrotation Yrotation Xrotation
	JOINT lhip
	{
		OFFSET 0.058581 -0.082280 -0.017664
		CHANNELS 3 Zrotation Yrotation Xrotation
		JOINT lknee
		{
			OFFSET 0.043451 -0.386469 0.008037
			CHANNELS 3 Zrotation Yrotation Xrotation
			JOINT lankle
			{
				OFFSET -0.014790 -0.426874 -0.037428
				CHANNELS 3 Zrotation Yrotation Xrotation
				JOINT ltoe
				{
					OFFSET 0.041054 -0.060286 0.122042
					CHANNELS 3 Zrotation Yrotation Xrotation
					End Site
					{
						OFFSET 0.000000 0.000000 0.000000
					}
				}
			}
		}
	}
	JOINT rhip
	{
		OFFSET -0.060310 -0.090513 -0.013543
		CHANNELS 3 Zrotation Yrotation Xrotation
		JOINT rknee
		{
			OFFSET -0.043257 -0.383688 -0.004843
			CHANNELS 3 Zrotation Yrotation Xrotation
			JOINT rankle
			{
				OFFSET 0.019056 -0.420046 -0.034562
				CHANNELS 3 Zrotation Yrotation Xrotation
				JOINT rtoe
				{
					OFFSET -0.034840 -0.062106 0.130323
					CHANNELS 3 Zrotation Yrotation Xrotation
					End Site
					{
						OFFSET 0.000000 0.000000 0.000000
					}
				}
			}
		}
	}
	JOINT lowerback
	{
		OFFSET 0.004439 0.124404 -0.038385
		CHANNELS 3 Zrotation Yrotation Xrotation
		JOINT upperback
		{
			OFFSET 0.004488 0.137956 0.026820
			CHANNELS 3 Zrotation Yrotation Xrotation
			JOINT chest
			{
				OFFSET -0.002265 0.056032 0.002855
				CHANNELS 3 Zrotation Yrotation Xrotation
				JOINT lowerneck
				{
					OFFSET -0.013390 0.211636 -0.033468
					CHANNELS 3 Zrotation Yrotation Xrotation
					JOINT upperneck
					{
						OFFSET 0.010113 0.088937 0.050410
						CHANNELS 3 Zrotation Yrotation Xrotation
						End Site
						{
							OFFSET 0.000000 0.000000 0.000000
						}
					}
				}
				JOINT lclavicle
				{
					OFFSET 0.071702 0.114000 -0.018898
					CHANNELS 3 Zrotation Yrotation Xrotation
					JOINT lshoulder
					{
						OFFSET 0.122921 0.045205 -0.019046
						CHANNELS 3 Zrotation Yrotation Xrotation
						JOINT lelbow
						{
							OFFSET 0.255332 -0.015649 -0.022946
							CHANNELS 3 Zrotation Yrotation Xrotation
							JOINT lwrist
							{
								OFFSET 0.265709 0.012698 -0.007375
								CHANNELS 3 Zrotation Yrotation Xrotation
								End Site
								{
									OFFSET 0.000000 0.000000 0.000000
								}
							}
						}
					}
				}
				JOINT rclavicle
				{
					OFFSET -0.082954 0.112472 -0.023707
					CHANNELS 3 Zrotation Yrotation Xrotation
					JOINT rshoulder
					{
						OFFSET -0.113228 0.046853 -0.008472
						CHANNELS 3 Zrotation Yrotation Xrotation
						JOINT relbow
						{
							OFFSET -0.260127 -0.014369 -0.031269
							CHANNELS 3 Zrotation Yrotation Xrotation
							JOINT rwrist
							{
								OFFSET -0.269108 0.006794 -0.006027
								CHANNELS 3 Zrotation Yrotation Xrotation
								End Site
								{
									OFFSET 0.000000 0.000000 0.000000
								}
							}
						}
					}
				}
			}
		}
	}
}
MOTION
Frames: 13
Frame Time: 0.033333
1.255897 0.698644 0.985952 -89.877775 0.269997 86.133872 -0.857191 -2.031033 -2.915233 -2.663236 -7.852076 10.864806 2.263673 10.943828 -10.301900 0.000000 -0.000000 0.000000 0.703311 -2.235874 -2.751772 -2.416656 0.588752 12.614775 1.234065 -10.511539 -11.151210 0.000000 -0.000000 0.000000 -0.815296 2.548653 8.816972 0.308212 -3.011386 1.188539 -0.671496 0.223274 -2.299855 -0.046089 -2.334001 -11.015244 3.636029 -3.029793 -0.971656 -27.363621 -6.388496 0.409742 -53.080097 -4.916014 15.484046 -1.679647 -20.647267 7.690577 -5.988731 -7.468819 3.748750 26.835958 10.802352 3.042261 54.349419 1.488237 19.173839 -1.021980 28.090430 12.412323 2.182631 5.964199 8.981920 
1.255189 0.698608 0.986285 -89.617585 0.313586 86.228954 -0.834223 -2.154838 -3.019168 -2.598435 -7.781151 10.941090 2.257933 10.708693 -10.295981 0.000000 -0.000000 0.000000 0.684861 -2.242064 -2.685308 -2.351650 0.282394 12.459945 1.228346 -10.508525 -11.198942 0.000000 -0.000000 0.000000 -0.801647 2.651231 8.294526 0.490062 -3.315355 2.147076 -0.715862 0.093155 -2.625779 -0.160262 -2.054500 -10.491478 3.717752 -3.266805 -1.902931 -26.684826 -6.744789 0.415698 -52.805118 -4.769191 15.476174 -2.278280 -21.144843 7.516727 -6.087964 -7.788585 4.273857 26.162909 11.004063 3.018754 54.156748 0.915438 19.285873 -0.919464 29.302252 13.547114 1.291228 6.920464 10.834037 
1.256287 0.698899 0.986405 -89.051006 0.466513 86.340826 -0.662511 -2.617961 -3.561361 -2.658020 -7.724669 11.477494 2.138158 10.550334 -10.398520 0.000000 -0.000000 0.000000 0.809331 -2.299278 -2.892289 -2.283742 0.023284 12.566358 1.180824 -10.719631 -11.219002 0.000000 -0.000000 0.000000 -0.657759 2.604974 8.590185 0.566040 -3.666184 1.819715 -0.628399 -0.121175 -2.227634 -0.140247 -1.770619 -10.743003 3.717724 -3.572114 -2.213611 -26.129109 -6.947811 0.382600 -52.172995 -4.651395 15.157566 -2.938093 -22.051273 7.870718 -5.380293 -8.595657 3.918985 25.765231 11.073026 2.935236 53.497890 0.331575 19.269413 -0.870634 30.951178 14.896804 -0.083937 8.131229 12.165197 
1.256876 0.699665 0.986922 -88.862807 0.470065 86.477006 -0.616692 -2.722841 -4.009579 -2.765286 -7.839502 11.875690 2.122020 10.731855 -10.438423 0.000000 -0.000000 0.000000 0.844928 -2.208866 -3.222082 -2.250751 -0.022228 12.869644 1.218045 -10.925214 -11.338058 0.000000 -0.000000 0.000000 -0.765985 2.605616 8.895006 0.645823 -3.746534 1.543313 -0.568715 -0.109079 -2.081398 -0.137484 -1.720743 -10.471675 3.933093 -3.556482 -2.710333 -25.294597 -7.039083 -0.009219 -51.585234 -4.322088 15.483924 -3.203977 -22.614373 8.713785 -4.678666 -8.396722 4.548381 25.194952 11.043582 2.838554 52.841344 -0.421215 19.369685 -0.486099 31.936998 15.811802 -1.383307 9.075144 12.816097 
1.257109 0.700090 0.987373 -88.963191 0.451015 86.661296 -0.614252 -2.627556 -4.252380 -2.730353 -7.731037 11.972007 2.104148 10.681674 -10.431375 0.000000 -0.000000 0.000000 0.823147 -2.297633 -3.530585 -2.210062 0.080657 13.037207 1.302420 -10.874035 -11.398208 0.000000 -0.000000 0.000000 -0.808819 2.788559 8.715998 0.731202 -3.784610 1.893917 -0.601201 -0.022887 -2.189879 -0.266717 -1.704832 -10.267183 4.071434 -3.774700 -3.243143 -24.831274 -7.086454 -0.301693 -51.123830 -4.160366 15.537417 -3.568627 -22.568956 8.887932 -5.378816 -8.180009 5.419471 24.943780 10.982500 2.747582 52.365364 -0.832803 19.132230 -0.589685 32.365258 15.895003 -1.102121 9.490982 13.860902 
1.257582 0.700601 0.987796 -88.933051 0.478203 86.815234 -0.509047 -2.760977 -4.571171 -2.829622 -7.754295 12.179167 2.017098 10.736064 -10.394329 0.000000 -0.000000 0.000000 0.871158 -2.321066 -3.765133 -2.167514 0.112809 13.087531 1.299605 -10.952508 -11.375024 0.000000 -0.000000 0.000000 -0.781451 2.935187 8.883854 0.788966 -3.836572 1.878364 -0.560601 -0.058771 -2.041064 -0.350572 -1.686440 -10.507240 4.190145 -4.039696 -3.662477 -24.307114 -7.208877 -0.377705 -50.587925 -3.963289 15.428604 -3.886971 -22.422218 9.108756 -5.950631 -8.335110 5.903499 24.538893 10.898554 2.635150 51.860956 -1.321008 18.953569 -0.518519 32.921347 16.552161 -0.563686 9.483306 14.605370 
1.257786 0.700972 0.988208 -88.884242 0.393115 86.896425 -0.647161 -2.754861 -4.744527 -2.742100 -7.717546 12.294943 2.004385 10.818315 -10.413460 0.000000 -0.000000 0.000000 0.767981 -2.223487 -3.899155 -2.148360 0.076482 13.181700 1.345564 -11.058356 -11.374251 0.000000 -0.000000 0.000000 -0.861121 2.922669 9.003705 0.790029 -3.846627 2.147728 -0.550701 -0.075314 -2.017048 -0.418124 -1.654583 -10.432976 4.410794 -4.026045 -4.279155 -23.845979 -7.142920 -0.358226 -50.242591 -3.698890 15.250731 -4.073812 -21.871904 8.922063 -6.140522 -8.814554 6.039620 24.048722 10.723253 2.593456 51.655493 -1.781753 18.688962 -0.313448 32.754450 16.649055 -1.013607 9.997796 14.694937 
1.257601 0.701444 0.988745 -89.157101 0.336636 87.159643 -0.623837 -2.579014 -4.954755 -2.823031 -7.782662 12.230376 1.923800 10.969553 -10.401775 0.000000 -0.000000 0.000000 0.728102 -2.175993 -4.246985 -2.099118 0.260830 13.246306 1.402624 -11.022895 -11.319180 0.000000 -0.000000 0.000000 -0.892569 2.928867 9.067729 0.770299 -3.694405 2.009455 -0.573012 -0.096830 -1.886334 -0.478493 -1.814756 -10.400048 4.587449 -3.935530 -4.957696 -23.695541 -6.624521 -0.416460 -49.899324 -3.074446 15.082504 -4.075874 -21.408169 8.565312 -6.016513 -9.201903 5.917584 23.667310 10.373631 2.538453 51.450250 -2.276302 18.602761 0.178246 32.533407 16.958095 -1.327602 10.080845 14.611983 
1.257956 0.701844 0.989307 -89.208633 0.322097 87.367918 -0.663743 -2.683595 -5.337145 -2.788331 -7.730619 12.494224 1.952339 11.171006 -10.493620 0.000000 -0.000000 0.000000 0.701168 -2.066812 -4.596852 -2.043493 0.273676 13.433599 1.485970 -11.086449 -11.408004 0.000000 -0.000000 0.000000 -0.853203 2.849043 9.322631 0.736855 -3.684675 1.866512 -0.615038 -0.113193 -1.657246 -0.570343 -1.705356 -10.881411 4.820926 -3.868101 -5.312637 -23.341474 -6.034848 -0.390673 -49.967338 -2.475858 14.797604 -4.211058 -20.870819 8.518055 -6.100727 -9.589712 5.859342 23.213280 9.805370 2.457375 51.454813 -2.749482 18.380981 0.634994 32.417106 17.651404 -1.621570 10.513024 15.017672 
1.257922 0.702476 0.989670 -89.449855 0.319740 87.583673 -0.594580 -2.728887 -5.685201 -2.902113 -7.677166 12.707632 1.977225 11.495030 -10.476033 0.000000 -0.000000 0.000000 0.718286 -1.975429 -4.963630 -1.953184 0.402793 13.605659 1.524588 -11.132816 -11.475217 0.000000 -0.000000 0.000000 -0.667189 2.818754 9.780789 0.505953 -3.594111 1.403122 -0.646146 -0.046027 -1.339058 -0.699423 -1.846454 -10.928731 5.064340 -3.881463 -5.666480 -22.664277 -5.328083 0.021887 -50.785401 -1.367260 14.390979 -3.910319 -20.221017 8.302097 -6.323412 -9.960118 5.069755 22.311317 9.432169 2.744864 52.196636 -3.885533 18.161699 0.783685 32.445262 18.140572 -1.686179 10.490783 13.966858 
1.257969 0.702935 0.989702 -89.566864 0.339151 87.802982 -0.556513 -2.799572 -6.133757 -2.955934 -7.621353 13.080431 2.025710 11.756850 -10.512336 0.000000 -0.000000 0.000000 0.765904 -1.887007 -5.451105 -1.882231 0.606719 14.030503 1.643177 -11.316544 -11.713389 0.000000 -0.000000 0.000000 -0.497633 2.776577 10.364968 0.383128 -3.493645 0.708033 -0.636074 -0.051115 -0.956264 -0.782000 -2.156646 -11.342653 4.969680 -4.052626 -5.897536 -22.371545 -4.267670 0.191833 -51.460057 -0.436364 14.296490 -3.888411 -20.005083 9.192081 -7.207650 -9.888043 4.670858 21.642777 8.643168 2.855344 52.586285 -4.783438 18.210446 1.235907 32.931579 19.096339 -1.823314 10.222428 13.058640 
1.258944 0.703750 0.989553 -89.662174 0.337113 87.778185 -0.452274 -2.907538 -6.632298 -3.196295 -7.429811 13.952923 2.028374 11.859003 -10.783203 0.000000 -0.000000 0.000000 0.735916 -1.810168 -5.918975 -1.743027 0.582144 14.819485 1.598620 -11.352510 -12.069095 0.000000 -0.000000 0.000000 -0.517311 2.842012 10.606223 0.450998 -3.619843 1.406286 -0.625954 -0.107537 -0.836686 -0.824075 -2.203837 -11.493814 5.022806 -3.990288 -6.638182 -22.498024 -3.912738 0.653957 -51.888821 0.466428 13.891799 -3.968869 -19.585107 8.994607 -7.939392 -9.967264 4.757174 21.443828 8.476132 2.974400 52.462186 -5.596955 18.016681 1.620955 33.624633 19.681277 -1.425224 10.313391 13.511871 
1.258974 0.704506 0.988748 -90.055413 0.281485 87.951983 -0.358688 -2.749081 -7.315818 -3.549338 -7.270614 14.990064 2.171698 12.094379 -11.381428 0.000000 -0.000000 0.000000 0.633267 -1.566644 -6.901723 -1.546183 0.627575 16.287200 1.530132 -11.318191 -12.756498 0.000000 -0.000000 0.000000 -0.631243 2.940539 10.600069 0.495716 -3.458168 2.187636 -0.645277 -0.139586 -0.844569 -0.822619 -2.022197 -11.911831 5.044708 -4.047748 -7.056265 -22.492897 -3.277593 0.910134 -52.549742 1.455313 13.581396 -4.193215 -19.372627 9.222329 -8.056021 -10.374767 4.988796 21.373456 8.062896 3.196659 52.354897 -6.142199 17.581020 1.838289 34.210326 19.940255 -2.211135 11.272049 13.911742 
